# xmcd
#
# Track frame offsets: 
#        150
#        22150
#        32750
#        48849
#        67717
#        85913
#        131105
#        152169
#        169488
#        186485
#
# Disc length: 2791 seconds
#
# Revision: 0
# Processed by: cddbd v1.5.2PL0 Copyright (c) Steve Scherf et al.
# Submitted via: ExactAudioCopy v0.99pb5
#
DISCID=870ae50a
DTITLE=Friedrich Liechtenstein - Bad Gastein
DYEAR=2014
DGENRE=Synthpop
TTITLE0=Die Auffindung des Wildbades Gastein
TTITLE1=Goldberg and Hirsch
TTITLE2=Das Badeschloss (Made for the Future)
TTITLE3=Elevator Girl
TTITLE4=Kommissar d' Amour
TTITLE5=Belgique, Belgique
TTITLE6=Das Zimmer
TTITLE7=(They Long to Be) Close to You
TTITLE8=We Have All the Time in the World
TTITLE9=Take it with Me
EXTD=
EXTT0=
EXTT1=
EXTT2=
EXTT3=
EXTT4=
EXTT5=
EXTT6=
EXTT7=
EXTT8=
EXTT9=
PLAYORDER=
